<?xml version="1.0" standalone="no"?>
<!DOCTYPE svg PUBLIC "-//W3C//DTD SVG 20010904//EN"
 "http://www.w3.org/TR/2001/REC-SVG-20010904/DTD/svg10.dtd">
<svg version="1.0" xmlns="http://www.w3.org/2000/svg"
 width="300.000000pt" height="168.000000pt" viewBox="0 0 300.000000 168.000000"
 preserveAspectRatio="xMidYMid meet">
<metadata>
Created by potrace 1.16, written by Peter Selinger 2001-2019
</metadata>
<g transform="translate(0.000000,168.000000) scale(0.100000,-0.100000)"
fill="#000000" stroke="none">
<path d="M2034 1600 c-52 -21 -69 -88 -34 -133 51 -65 150 -30 150 52 0 60
-63 104 -116 81z m74 -27 c35 -30 38 -68 8 -97 -46 -47 -116 -21 -116 44 0 59
64 90 108 53z"/>
<path d="M340 1285 l0 -45 81 0 c60 0 80 3 77 13 -3 7 -27 13 -61 15 -42 2
-57 7 -57 17 0 8 5 15 11 15 5 0 7 -4 4 -10 -4 -6 15 -10 49 -10 45 0 57 -4
66 -20 13 -24 70 -29 70 -6 0 8 7 17 16 20 37 14 -4 26 -91 26 -73 0 -94 3
-99 15 -3 9 -18 15 -36 15 -29 0 -30 -2 -30 -45z"/>
<path d="M273 1216 c15 -8 46 -16 70 -18 38 -3 43 -6 52 -35 7 -27 14 -33 36
-33 16 0 30 4 33 8 2 4 22 9 42 10 21 2 40 5 42 7 3 2 13 0 23 -5 35 -19 29 8
-9 40 -20 17 -28 27 -16 21 11 -5 26 -17 34 -25 19 -24 32 -19 28 12 -3 24 -7
27 -43 27 -31 0 -41 -4 -43 -18 -2 -10 5 -25 15 -32 10 -8 13 -15 6 -15 -6 0
-15 5 -18 11 -5 7 -14 4 -26 -7 -23 -21 -24 -16 -5 22 8 15 13 31 10 36 -3 4
-62 8 -132 8 -117 0 -125 -1 -99 -14z"/>
<path d="M2046 975 c-6 -18 9 -55 23 -55 5 0 7 -18 4 -40 -3 -23 -2 -40 4 -40
6 0 8 12 5 26 -3 19 -1 25 7 20 17 -11 13 -41 -9 -61 -21 -19 -29 -95 -10 -95
6 0 10 15 10 33 0 21 8 41 20 52 24 21 22 23 44 -37 11 -29 24 -48 33 -48 14
0 14 3 1 23 -14 20 -34 111 -30 130 1 4 -2 7 -8 7 -5 0 -10 7 -10 15 0 20 16
19 30 -2 11 -17 11 -17 6 0 -3 10 -6 21 -6 23 0 2 -11 4 -24 4 -19 0 -25 6
-28 28 -2 21 -9 28 -29 30 -17 2 -29 -3 -33 -13z"/>
<path d="M2378 792 c-20 -34 -14 -70 16 -94 18 -15 19 -20 9 -37 -15 -25 -17
-34 -4 -26 5 3 12 1 15 -4 3 -5 15 -7 26 -4 15 4 20 0 20 -13 0 -16 2 -17 11
-4 8 12 9 9 5 -12 -3 -14 -9 -34 -13 -44 -4 -12 -3 -15 5 -10 7 4 12 15 12 25
0 10 7 24 15 31 12 10 15 10 15 -1 0 -8 -4 -20 -9 -28 -11 -17 -3 -43 10 -35
5 3 9 -4 9 -16 0 -12 5 -18 10 -15 6 3 10 1 10 -5 0 -6 4 -9 8 -6 4 2 6 -11 4
-30 -5 -39 4 -45 18 -11 8 18 9 14 8 -21 -1 -27 -9 -49 -20 -59 -17 -15 -18
-15 -18 5 0 17 -6 22 -25 22 -17 0 -25 -5 -24 -17 0 -11 3 -13 6 -6 10 25 33
-15 33 -58 0 -36 2 -40 15 -29 18 15 20 4 2 -14 -7 -7 -17 -11 -24 -9 -6 2
-13 -4 -16 -14 -3 -11 -5 -6 -6 12 -1 23 -4 26 -11 15 -5 -8 -12 -11 -16 -7
-4 4 -2 13 4 19 16 16 15 38 -2 38 -8 0 -16 -16 -20 -42 -3 -24 -10 -61 -15
-83 l-9 -40 -2 40 c-1 32 -3 36 -10 20 -7 -16 -9 -11 -9 22 -1 23 -5 53 -11
67 -6 16 -6 26 0 26 6 0 6 9 1 22 -5 13 -14 22 -19 21 -5 -1 -8 7 -5 18 5 18
7 17 21 -11 8 -17 21 -29 27 -26 7 2 18 -1 24 -7 8 -8 11 -4 9 16 -2 19 -8 27
-21 27 -14 0 -18 5 -14 19 4 16 0 18 -19 15 -15 -3 -24 0 -24 8 -1 7 -8 2 -16
-12 l-15 -25 5 30 c2 17 1 37 -5 45 -5 8 -9 10 -9 4 0 -5 -7 -19 -15 -30 -15
-19 -15 -19 -9 1 6 16 4 17 -5 9 -15 -14 -40 -202 -34 -252 2 -21 0 -31 -7
-27 -6 3 -10 48 -10 103 0 63 4 92 9 82 7 -9 9 5 9 43 -1 32 -7 62 -13 67 -10
8 -11 1 -5 -30 12 -64 -7 -57 -21 7 -11 50 -13 54 -20 33 -4 -14 -7 -19 -8
-12 -1 7 -6 10 -12 6 -6 -3 -15 -1 -19 5 -8 14 -60 23 -60 11 0 -13 29 -32 39
-25 6 3 19 1 30 -4 24 -14 29 -101 5 -101 -11 0 -15 -8 -12 -32 2 -19 -2 -33
-9 -35 -8 -3 -13 4 -13 17 0 19 -2 20 -15 10 -8 -7 -15 -22 -16 -34 -1 -11 -5
-3 -9 19 -9 45 -37 115 -46 115 -3 0 -2 -15 1 -32 l7 -33 -32 35 c-17 19 -31
28 -30 20 6 -40 -4 -49 -10 -10 -5 29 -7 -2 -6 -85 2 -114 1 -126 -10 -100 -7
17 -13 45 -14 63 0 17 -4 32 -9 32 -5 0 -3 20 5 45 13 43 12 45 -6 35 -15 -8
-18 -18 -15 -48 2 -20 4 -56 4 -80 1 -24 5 -41 9 -38 5 3 16 -17 24 -44 19
-58 15 -63 -12 -17 -12 19 -21 26 -21 17 -2 -17 -19 89 -22 139 -2 24 -9 37
-25 44 -12 6 -22 18 -22 29 0 10 -4 18 -10 18 -5 0 -10 -11 -10 -25 0 -16 -6
-25 -15 -25 -13 0 -14 -2 -3 -14 10 -11 16 -11 27 -2 12 9 13 7 7 -14 -5 -14
-8 -35 -8 -47 0 -13 -5 -20 -10 -17 -7 5 -8 -13 -4 -52 4 -37 3 -54 -2 -45 -8
11 -10 11 -15 0 -3 -8 -4 4 -1 26 10 95 12 124 6 124 -27 -4 -34 3 -28 26 7
28 -9 51 -34 50 -9 0 -14 -8 -12 -20 5 -26 12 -33 12 -12 0 9 5 17 10 17 6 0
10 -26 10 -57 0 -41 -3 -54 -10 -43 -8 13 -10 12 -10 -5 0 -14 -3 -16 -12 -7
-9 9 -7 16 6 31 12 13 14 21 6 26 -16 10 -22 1 -23 -39 -1 -27 -5 -36 -18 -36
-10 0 -22 7 -27 16 -8 14 -12 12 -28 -15 -12 -20 -26 -31 -40 -31 -12 0 -25
-6 -27 -12 -4 -10 -6 -10 -6 0 -2 26 -20 10 -24 -20 l-4 -33 -1 33 c-2 35 -7
39 -26 19 -8 -8 -11 -26 -8 -46 l5 -34 -22 22 c-15 15 -20 29 -16 44 5 20 5
20 -5 4 -7 -10 -10 -38 -8 -62 2 -25 -2 -47 -9 -54 -7 -7 -13 -22 -13 -36 0
-13 -3 -30 -6 -39 -4 -12 0 -16 15 -16 18 0 21 6 22 43 l2 42 7 -40 c5 -29 8
-33 9 -15 3 25 3 25 16 -5 l14 -30 1 28 c0 33 17 36 26 4 5 -22 11 -24 71 -26
46 -1 69 2 74 11 7 10 9 10 9 1 0 -18 146 -18 153 0 4 9 6 9 6 0 1 -7 10 -13
20 -13 15 0 21 8 24 33 l4 32 1 -32 c2 -30 5 -33 33 -33 19 0 28 4 24 11 -4 6
-10 8 -13 5 -9 -9 -31 65 -25 82 5 12 9 10 16 -9 l10 -24 7 25 7 25 10 -25 c6
-14 8 -39 6 -57 l-5 -31 125 -1 c123 -1 126 -1 130 21 l4 23 2 -22 c1 -22 5
-23 92 -23 76 0 94 3 105 18 13 16 14 16 8 0 -6 -17 10 -18 250 -18 l257 0 -2
204 c-1 165 -4 206 -15 210 -10 4 -14 -2 -14 -19 0 -13 -4 -27 -10 -30 -9 -5
-3 53 6 64 2 2 -1 10 -7 17 -8 9 -5 16 11 24 19 10 20 9 14 -14 -3 -15 -2 -26
3 -26 18 0 13 49 -6 60 -11 5 -26 16 -33 24 -12 12 -14 6 -11 -43 1 -31 0 -50
-3 -43 -3 6 -10 10 -15 6 -5 -3 -9 1 -9 10 0 8 5 16 12 18 13 5 2 28 -13 28
-6 0 -7 -5 -3 -12 4 -7 3 -8 -5 -4 -6 4 -9 16 -6 26 6 19 -16 33 -39 24 -8 -3
-17 0 -21 6 -5 8 -11 7 -23 -2 -16 -12 -16 -11 -2 7 8 11 16 22 17 24 1 2 11
-2 20 -10 17 -13 17 -13 4 4 -9 11 -23 17 -37 14 -17 -3 -20 0 -16 17 5 20 5
20 -12 4 -22 -22 -32 -23 -40 -2 -10 25 -7 27 11 13 11 -10 14 -10 9 -2 -4 7
-1 22 7 34 11 15 16 17 20 7 3 -7 6 -3 6 10 1 19 -3 22 -19 17 -11 -3 -20 -3
-20 2 0 5 -32 8 -70 6 -65 -1 -74 1 -103 27 -18 16 -45 32 -60 35 -15 4 -27
13 -27 20 0 8 -8 16 -19 20 -10 3 -26 14 -36 25 -25 28 -48 25 -67 -8z"/>
<path d="M15 658 c-9 -32 -15 -85 -9 -91 4 -4 13 -2 21 5 11 9 15 7 20 -11 3
-13 9 -18 12 -12 4 6 12 7 21 0 13 -8 13 -10 0 -20 -13 -9 -13 -10 0 -6 8 2
16 17 18 33 2 16 7 33 11 37 5 5 6 -16 3 -45 -4 -46 -3 -51 10 -41 8 7 18 10
21 7 3 -4 4 11 2 32 -2 22 -2 31 1 21 3 -10 13 -17 22 -16 38 3 44 -1 38 -25
-3 -14 -3 -32 1 -42 6 -16 7 -16 14 2 6 16 8 15 8 -7 1 -25 17 -39 43 -39 6 0
3 10 -5 23 -9 14 -12 29 -7 37 5 8 11 1 19 -23 7 -20 17 -37 23 -39 7 -3 8
-18 4 -43 -6 -28 -10 -35 -17 -24 -7 12 -9 12 -10 -1 0 -9 -4 -7 -11 8 -6 12
-15 22 -20 22 -5 0 -7 4 -3 9 3 5 -2 17 -11 26 -12 12 -19 13 -24 5 -14 -22
-25 -11 -36 37 l-12 48 -2 -45 c-5 -77 -20 -164 -27 -156 -2 2 -6 23 -7 46 -2
23 -10 46 -17 51 -11 8 -9 13 10 29 13 11 19 20 13 20 -6 0 -18 8 -28 17 -16
16 -16 16 -11 -2 3 -11 0 -33 -8 -50 l-13 -30 -1 52 c-1 28 -5 55 -11 58 -6 3
-8 -14 -6 -46 2 -45 1 -50 -11 -34 -12 17 -13 17 -14 -11 -2 -36 -2 -36 6 -55
4 -10 1 -16 -9 -16 -11 0 -13 10 -10 43 3 23 1 45 -4 48 -5 3 -9 -90 -10 -222
0 -135 3 -219 8 -207 l9 20 1 -20 c2 -14 5 -11 10 10 l8 30 1 -27 c1 -27 3
-28 55 -28 34 0 56 5 59 13 4 9 6 9 6 0 1 -10 63 -13 277 -13 l276 0 -5 33 -6
32 16 -33 c17 -32 17 -32 94 -32 65 0 78 3 82 17 4 17 5 17 6 1 1 -16 14 -18
126 -18 117 0 125 1 125 19 0 26 -17 36 -23 14 -2 -10 -7 5 -11 32 -4 28 -12
68 -18 90 -10 37 -11 38 -19 17 -6 -15 -5 -31 2 -44 6 -11 8 -32 4 -46 l-8
-27 -9 34 c-5 18 -12 30 -15 27 -3 -3 -12 -1 -20 5 -10 9 -13 7 -13 -10 0 -11
-4 -21 -9 -21 -5 0 -11 -10 -13 -22 -3 -21 -5 -20 -26 12 -25 41 -29 58 -7 40
12 -10 15 -9 15 7 0 10 -4 23 -9 29 -5 5 -11 18 -14 29 -3 12 -5 6 -6 -15 -1
-27 -4 -31 -11 -20 -5 8 -10 26 -11 40 -1 23 -2 23 -8 -5 -7 -28 -7 -28 -15
18 -4 26 -12 47 -17 47 -6 0 -8 -3 -6 -8 3 -4 1 -16 -4 -27 -6 -17 -8 -16 -9
10 -1 24 -5 19 -20 -30 -10 -33 -19 -51 -19 -40 -1 15 -3 17 -10 6 -11 -17
-31 93 -24 130 3 15 1 29 -4 32 -5 3 -10 -7 -11 -22 -1 -16 -9 -46 -16 -67
-12 -33 -15 -35 -15 -14 -1 20 -3 22 -11 10 -7 -11 -10 -5 -10 23 0 21 -7 45
-15 53 -13 13 -15 12 -21 -11 -4 -14 -1 -31 6 -40 8 -9 9 -25 5 -42 l-8 -28
-10 35 c-10 32 -11 33 -15 11 -3 -19 -6 -21 -13 -10 -7 9 -8 1 -4 -26 5 -34 4
-37 -6 -21 -7 11 -13 54 -14 95 -1 42 -5 84 -9 93 -4 9 -4 23 0 30 4 7 4 10
-1 6 -4 -4 -15 -2 -23 4 -11 10 -11 5 2 -26 9 -21 16 -59 15 -85 0 -25 -3 -41
-5 -34 -3 7 -11 10 -19 7 -7 -3 -16 3 -20 15 -10 31 -35 26 -35 -6 -1 -27 -1
-27 -15 -9 -8 11 -15 31 -15 44 0 21 -2 23 -15 12 -13 -11 -14 -10 -9 4 5 12
2 15 -10 10 -9 -3 -16 -16 -16 -28 0 -17 -2 -18 -10 -6 -5 8 -10 29 -10 47 0
17 -5 35 -11 38 -16 10 -24 -4 -11 -17 16 -16 15 -29 0 -26 -14 3 -16 -23 -4
-92 5 -32 4 -41 -3 -30 -6 8 -11 31 -12 50 -1 32 -2 33 -9 10 -8 -24 -8 -23
-9 8 -1 23 -5 31 -13 26 -8 -5 -9 -2 -5 9 3 9 0 29 -8 44 -13 24 -15 25 -16 8
-1 -11 -7 6 -14 39 -7 32 -17 61 -21 65 -14 10 -34 49 -34 66 0 18 23 16 30
-3 3 -8 10 -13 14 -12 5 1 13 -4 17 -12 6 -9 9 -6 10 12 0 20 3 17 13 -15 l13
-40 11 28 c12 28 3 100 -14 115 -4 4 -5 0 -1 -10 11 -30 -6 -28 -30 4 -24 34
-31 31 -12 -5 12 -22 12 -22 -9 -4 -11 11 -26 16 -31 12 -6 -3 -11 0 -12 7 0
7 -4 4 -9 -7 l-9 -20 0 20 c-1 15 -3 17 -10 6 -7 -10 -9 -11 -13 -1 -2 8 -12
14 -21 16 -14 2 -15 -1 -6 -19 9 -18 9 -20 -2 -9 -19 18 -29 15 -30 -10 0 -22
-1 -22 -9 -3 -5 14 -3 24 8 33 10 8 12 12 3 12 -7 0 -9 5 -5 12 4 6 3 8 -4 4
-5 -3 -12 -3 -15 1 -2 5 -3 3 -1 -3 4 -19 -14 -37 -31 -31 -11 5 -15 14 -11
29 3 13 3 17 0 10 -3 -6 -10 -10 -15 -6 -5 3 -14 2 -20 -2 -8 -5 -8 -9 1 -14
8 -5 7 -9 -4 -13 -12 -5 -16 0 -17 16 -1 17 -2 18 -6 5 -2 -10 -8 -18 -13 -18
-4 0 -6 9 -3 20 6 21 -5 28 -12 8z"/>
<path d="M397 580 c-4 -15 -1 -30 8 -40 8 -9 15 -25 16 -36 1 -15 3 -14 9 6 7
23 8 22 9 -11 1 -19 -4 -40 -10 -46 -6 -6 -9 -17 -7 -23 4 -14 23 23 34 65 l7
30 10 -35 c6 -19 15 -38 20 -41 6 -4 7 -22 3 -40 l-6 -34 20 30 c11 17 20 39
21 50 0 13 5 8 13 -15 12 -32 13 -33 19 -11 4 15 10 20 18 15 9 -5 10 -2 4 12
-9 23 -9 36 0 89 5 22 4 36 -1 32 -4 -4 -14 -38 -20 -75 -7 -37 -13 -54 -13
-38 -1 16 -4 26 -8 23 -12 -13 -42 46 -38 73 5 23 4 23 -9 -4 l-13 -29 -7 27
c-4 15 -11 24 -16 21 -6 -3 -10 2 -11 12 0 17 -1 17 -8 0 -9 -23 -23 -24 -31
-1 -6 15 -8 14 -13 -6z"/>
</g>
</svg>
