<?xml version="1.0" standalone="no"?>
<!DOCTYPE svg PUBLIC "-//W3C//DTD SVG 20010904//EN"
 "http://www.w3.org/TR/2001/REC-SVG-20010904/DTD/svg10.dtd">
<svg version="1.0" xmlns="http://www.w3.org/2000/svg"
 width="207.000000pt" height="243.000000pt" viewBox="0 0 207.000000 243.000000"
 preserveAspectRatio="xMidYMid meet">
<metadata>
Created by potrace 1.16, written by Peter Selinger 2001-2019
</metadata>
<g transform="translate(0.000000,243.000000) scale(0.100000,-0.100000)"
fill="#000000" stroke="none">
<path d="M920 2413 c-60 -21 -122 -63 -264 -182 -115 -96 -143 -111 -207 -111
-75 0 -132 -22 -179 -69 -93 -93 -181 -322 -160 -416 8 -38 48 -84 94 -110 17
-10 17 -15 -3 -115 -42 -222 -71 -569 -71 -871 l0 -195 -50 -21 c-62 -26 -86
-70 -75 -142 13 -89 17 -91 166 -91 93 0 174 -7 278 -25 318 -53 380 -59 591
-59 214 1 324 12 576 59 101 19 164 25 277 25 170 0 169 0 171 101 1 69 -19
103 -85 138 l-45 24 -2 136 c-3 265 -44 698 -83 895 l-20 100 31 24 c51 40 64
76 64 172 0 131 -60 295 -124 340 -32 23 -107 44 -216 60 -67 10 -84 17 -114
44 -52 49 -216 177 -288 225 -122 82 -174 95 -262 64z m172 -81 c141 -77 488
-373 488 -414 0 -11 -11 -19 -32 -23 -134 -22 -182 -27 -329 -32 -231 -8 -429
12 -682 68 l-98 22 38 40 c49 51 313 273 378 317 54 37 107 59 145 59 14 1 55
-16 92 -37z m-695 -432 c129 -49 381 -92 613 -105 172 -10 543 25 625 59 19 8
56 38 83 67 l49 52 26 -39 c55 -84 90 -249 68 -316 -21 -63 -42 -74 -244 -123
-266 -65 -368 -78 -592 -79 -155 0 -214 4 -320 23 -173 31 -353 83 -445 128
-88 45 -103 71 -88 157 9 48 61 173 94 224 l15 23 29 -25 c16 -13 56 -34 87
-46z m-5 -455 c178 -62 317 -86 540 -92 236 -7 335 3 626 61 l212 42 10 -36
c40 -139 90 -660 91 -945 1 -161 1 -161 86 -204 45 -23 60 -51 49 -96 l-6 -25
-134 0 c-93 0 -162 -6 -228 -19 -147 -31 -370 -60 -513 -67 -161 -8 -319 5
-603 51 -159 25 -251 35 -335 35 l-116 0 -6 34 c-9 44 6 70 47 85 18 7 43 18
56 24 l23 12 4 305 c3 312 24 571 60 766 17 88 22 104 31 104 3 0 50 -16 106
-35z"/>
<path d="M911 1245 c-80 -23 -149 -63 -211 -125 -252 -253 -150 -675 191 -790
53 -18 81 -21 165 -18 95 3 106 6 187 46 133 66 216 169 253 315 21 80 14 201
-16 279 -46 122 -156 232 -279 279 -74 28 -215 35 -290 14z m251 -66 c270 -91
374 -416 206 -643 -49 -66 -137 -129 -211 -151 -65 -19 -179 -19 -244 0 -216
64 -344 313 -272 527 74 220 307 339 521 267z"/>
<path d="M761 921 c-12 -8 -12 -16 -1 -57 18 -62 70 -121 122 -135 40 -10 98
-4 98 11 0 5 -21 27 -47 50 -51 45 -44 44 23 -1 55 -38 65 -74 28 -104 -16
-13 -36 -20 -49 -17 -35 6 -65 -15 -86 -61 -32 -72 -36 -70 119 -63 231 11
260 15 255 36 -9 33 -41 53 -86 54 -37 1 -43 4 -47 26 -4 18 -13 26 -33 28
-22 3 -27 8 -27 32 0 23 7 31 38 43 20 9 54 23 75 31 56 24 45 11 -23 -26 -33
-18 -58 -37 -57 -43 6 -18 51 -35 93 -35 68 0 143 45 182 110 36 61 40 85 15
95 -28 11 -167 18 -207 11 -47 -9 -103 -58 -112 -99 l-7 -32 -14 39 c-17 49
-39 75 -79 92 -41 17 -155 28 -173 15z"/>
<path d="M1697 593 c-3 -4 -4 -66 -3 -138 l2 -130 24 0 c22 0 26 6 34 48 5 27
5 85 0 135 -8 78 -11 87 -31 90 -11 2 -23 0 -26 -5z"/>
</g>
</svg>
