<?xml version="1.0" standalone="no"?>
<!DOCTYPE svg PUBLIC "-//W3C//DTD SVG 20010904//EN"
 "http://www.w3.org/TR/2001/REC-SVG-20010904/DTD/svg10.dtd">
<svg version="1.0" xmlns="http://www.w3.org/2000/svg"
 width="225.000000pt" height="225.000000pt" viewBox="0 0 225.000000 225.000000"
 preserveAspectRatio="xMidYMid meet">
<metadata>
Created by potrace 1.16, written by Peter Selinger 2001-2019
</metadata>
<g transform="translate(0.000000,225.000000) scale(0.100000,-0.100000)"
fill="#000000" stroke="none">
<path d="M1601 2203 c-13 -26 2 -125 28 -185 45 -102 139 -191 241 -229 33
-12 60 -23 60 -26 0 -2 -7 -14 -16 -28 -14 -21 -19 -22 -45 -13 -17 6 -69 8
-117 6 -69 -4 -98 -10 -140 -32 -77 -39 -132 -94 -177 -177 -46 -84 -74 -107
-174 -148 -40 -16 -91 -41 -112 -56 -31 -20 -47 -24 -72 -20 -41 8 -162 -17
-215 -44 -23 -12 -44 -21 -47 -21 -3 0 -5 24 -5 53 0 29 -7 77 -16 106 -8 29
-14 54 -12 55 2 1 26 7 53 14 164 42 298 206 299 367 l1 70 -70 -1 c-150 -1
-301 -113 -356 -265 l-22 -59 -33 25 c-18 14 -37 25 -43 25 -12 0 -41 -28 -41
-40 0 -5 24 -34 54 -65 73 -74 100 -131 104 -222 2 -40 2 -73 -1 -73 -2 0 -34
13 -70 30 -135 61 -263 60 -393 -5 -170 -83 -259 -259 -258 -510 1 -177 32
-277 140 -443 67 -105 97 -138 146 -163 67 -34 114 -39 228 -23 58 8 155 15
215 16 99 0 116 -2 160 -24 109 -55 150 -63 310 -62 136 0 156 2 220 26 39 15
99 29 135 33 155 17 301 87 410 195 75 76 120 148 158 252 24 66 27 86 27 213
0 134 -2 144 -34 234 -37 104 -38 150 -3 231 61 138 23 303 -94 415 l-54 52
36 42 c48 56 100 81 167 81 60 0 83 16 72 49 -3 12 -18 24 -32 27 -24 6 -98 0
-139 -11 -17 -5 -22 0 -33 37 -52 172 -195 294 -361 306 -60 4 -69 2 -79 -15z
m188 -95 c88 -43 181 -165 181 -240 l0 -27 -45 13 c-63 19 -127 59 -165 102
-38 44 -80 129 -80 163 0 21 3 23 32 17 18 -4 53 -16 77 -28z m-733 -320 c-10
-48 -42 -109 -81 -156 -35 -40 -128 -94 -189 -108 -28 -7 -28 -6 -21 27 21
101 113 212 207 248 79 30 92 28 84 -11z m841 -160 c97 -46 161 -138 170 -247
4 -45 -1 -74 -27 -151 -38 -113 -37 -144 11 -282 69 -199 31 -403 -104 -570
-51 -62 -156 -137 -234 -167 l-53 -21 61 73 c96 114 149 232 169 377 17 125
25 120 -195 120 l-185 0 0 38 c0 64 -28 173 -63 247 -39 81 -102 151 -177 193
l-52 30 45 20 c25 11 56 23 69 28 67 21 124 76 167 161 78 156 249 221 398
151z m-1279 -448 c39 -19 91 -34 123 -37 48 -5 66 -1 138 31 104 46 174 54
261 32 159 -40 261 -173 288 -372 5 -35 6 -66 4 -69 -3 -3 -209 -5 -457 -5
-392 0 -454 -2 -465 -15 -10 -12 -10 -34 -2 -99 20 -153 80 -285 177 -394 l47
-52 -44 0 c-24 0 -97 -7 -161 -15 -176 -23 -209 -10 -298 122 -68 100 -116
204 -134 288 -39 185 3 396 101 504 107 120 273 151 422 81z m32 -532 c1 -47
39 -154 80 -222 67 -111 197 -207 325 -241 76 -19 211 -19 289 1 181 47 336
199 390 383 9 30 16 67 16 83 0 25 3 28 35 28 36 0 36 0 30 -37 -23 -140 -85
-261 -181 -357 -171 -170 -414 -226 -640 -146 -193 67 -342 233 -394 436 -27
103 -26 104 15 104 33 0 35 -2 35 -32z m1023 0 c-19 -108 -81 -218 -157 -285
-59 -51 -169 -101 -252 -113 -248 -38 -499 145 -537 393 l-6 37 479 0 480 0
-7 -32z"/>
<path d="M1092 608 c-16 -16 -15 -33 4 -52 11 -12 36 -16 94 -16 69 0 81 3 94
22 11 15 12 26 5 40 -8 15 -22 18 -97 18 -55 0 -92 -4 -100 -12z"/>
</g>
</svg>
