<?xml version="1.0" standalone="no"?>
<!DOCTYPE svg PUBLIC "-//W3C//DTD SVG 20010904//EN"
 "http://www.w3.org/TR/2001/REC-SVG-20010904/DTD/svg10.dtd">
<svg version="1.0" xmlns="http://www.w3.org/2000/svg"
 width="225.000000pt" height="225.000000pt" viewBox="0 0 225.000000 225.000000"
 preserveAspectRatio="xMidYMid meet">
<metadata>
Created by potrace 1.16, written by Peter Selinger 2001-2019
</metadata>
<g transform="translate(0.000000,225.000000) scale(0.100000,-0.100000)"
fill="#000000" stroke="none">
<path d="M1620 2000 c-14 -4 -45 -13 -70 -21 -25 -7 -50 -17 -57 -21 -6 -5
-24 -11 -40 -13 -53 -7 -138 -45 -177 -80 -32 -29 -37 -39 -32 -61 5 -17 3
-23 -4 -19 -5 3 -10 13 -10 21 0 17 -10 17 -33 0 -10 -8 -15 -20 -11 -29 4
-13 0 -15 -24 -12 -29 4 -31 1 -48 -51 -10 -31 -20 -50 -24 -44 -5 8 -15 4
-32 -12 -13 -12 -39 -36 -58 -52 -19 -16 -29 -31 -23 -33 15 -5 4 -43 -13 -43
-7 0 -21 -16 -30 -35 -9 -19 -30 -48 -46 -64 -19 -18 -26 -31 -19 -36 6 -3 9
-11 5 -16 -3 -5 -10 -7 -15 -4 -5 4 -9 0 -9 -7 0 -8 -11 -29 -25 -48 -20 -27
-24 -41 -19 -67 5 -24 3 -33 -7 -33 -18 0 -32 -34 -59 -135 -17 -63 -21 -102
-18 -184 2 -74 0 -105 -9 -108 -7 -3 -13 10 -16 34 l-4 38 -1 -38 c-2 -47 -18
-45 -47 4 -24 41 -27 146 -6 197 17 41 27 32 45 -43 8 -33 15 -51 15 -40 1 11
-7 49 -17 85 l-19 65 45 70 c67 103 75 129 61 173 -7 21 -21 54 -31 74 -11 21
-17 42 -13 48 9 14 78 13 94 -2 11 -11 12 -8 7 16 -6 23 -4 27 8 23 17 -7 22
8 6 18 -5 3 -7 12 -3 20 4 11 1 13 -13 8 -17 -6 -17 -5 -5 10 17 21 7 35 -13
18 -11 -10 -17 -8 -25 6 -6 10 -11 12 -11 6 0 -7 -5 -13 -10 -13 -16 0 0 72
19 88 14 12 12 13 -12 9 -20 -3 -27 -1 -23 9 3 9 -1 11 -12 7 -14 -5 -15 -3
-5 8 21 22 16 41 -9 34 -14 -4 -18 -3 -11 2 15 11 0 38 -16 29 -6 -4 -11 0
-11 9 0 13 -6 15 -30 10 -22 -5 -30 -3 -28 6 4 15 -43 29 -59 17 -7 -5 -14 -5
-18 2 -13 22 -25 8 -21 -25 5 -40 -17 -50 -29 -12 -3 12 -9 17 -11 10 -7 -17
14 -53 31 -53 8 0 15 -4 15 -10 0 -14 -16 -12 -32 3 -7 8 -20 11 -28 9 -12 -4
-13 -3 -2 10 10 13 9 16 -7 21 -10 2 -25 1 -32 -3 -10 -7 -10 -11 0 -24 17
-20 7 -20 -27 -2 -15 8 -35 17 -46 20 -15 5 -16 9 -6 21 7 9 11 18 8 20 -7 8
-38 -6 -38 -16 0 -5 -4 -9 -10 -9 -5 0 -9 3 -9 8 3 19 -2 26 -10 13 -8 -12
-12 -12 -25 -2 -14 11 -16 11 -16 -3 0 -17 45 -40 65 -32 6 2 22 -5 36 -16
l24 -20 -25 7 c-14 4 -38 9 -55 12 -16 3 -40 17 -53 31 -19 23 -24 25 -32 12
-9 -13 -12 -12 -25 4 -14 19 -15 19 -15 -6 0 -34 -19 -47 -27 -19 -7 27 -23
27 -23 1 0 -17 -5 -19 -32 -13 -23 4 -30 2 -23 -5 6 -5 19 -12 29 -14 11 -1
22 -10 24 -18 4 -12 2 -13 -9 -3 -22 18 -79 14 -71 -5 3 -8 -3 -21 -13 -28
-18 -13 -18 -14 0 -34 18 -20 18 -21 0 -34 -17 -12 -17 -16 -6 -30 8 -9 20
-15 27 -12 8 3 18 -4 24 -14 7 -14 7 -20 0 -20 -5 0 -10 5 -10 11 0 5 -4 7
-10 4 -5 -3 -10 -16 -10 -28 0 -12 -7 -35 -15 -51 -9 -16 -13 -37 -10 -48 4
-10 2 -18 -4 -18 -12 0 -3 -58 11 -77 5 -7 7 -16 4 -21 -3 -6 1 -15 9 -22 11
-9 15 -9 15 -1 0 7 4 10 9 7 5 -3 16 6 26 20 9 15 22 23 30 20 8 -3 17 -1 20
4 10 16 -29 11 -53 -6 -12 -8 -27 -14 -33 -12 -6 2 13 16 42 30 44 22 49 27
28 28 -14 0 -34 -7 -45 -15 -22 -16 -44 -19 -44 -6 0 20 69 32 141 25 53 -5
70 -4 65 5 -5 8 0 8 21 0 43 -16 113 -27 113 -18 0 5 -4 9 -8 9 -13 0 -82 69
-82 82 0 6 22 -10 50 -36 30 -28 82 -61 130 -83 44 -20 80 -40 80 -44 0 -12
-2 -12 -51 11 -56 25 -109 25 -157 1 -37 -19 -92 -67 -92 -81 0 -12 -39 -19
-46 -9 -3 5 2 9 10 9 8 0 18 5 22 12 4 7 3 8 -4 4 -7 -4 -12 -2 -12 3 0 6 5
11 11 11 7 0 34 16 61 36 28 19 59 39 71 43 15 6 -2 10 -56 15 -66 6 -84 4
-123 -13 -25 -11 -49 -20 -54 -18 -4 1 -19 -10 -33 -26 -23 -24 -25 -31 -15
-52 12 -26 17 -29 42 -19 26 10 18 27 -9 20 -14 -4 -25 -2 -25 4 0 5 5 10 11
10 6 0 17 6 25 14 11 11 19 12 39 3 14 -7 25 -19 25 -26 0 -12 -3 -12 -12 -3
-15 15 -32 16 -23 1 4 -5 -1 -19 -10 -29 -16 -18 -16 -20 -1 -26 9 -3 22 -4
30 -1 8 3 17 1 19 -6 3 -9 8 -8 21 2 13 11 20 11 28 3 7 -7 17 -12 22 -12 6 0
4 4 -4 10 -8 5 -11 12 -7 17 4 4 17 2 27 -5 11 -7 28 -12 38 -12 26 0 42 -20
43 -54 l0 -31 12 34 c7 19 18 36 25 39 11 3 10 -3 -2 -26 -25 -49 -21 -97 13
-134 l30 -33 10 28 c6 16 22 43 36 61 26 34 24 46 -6 46 -11 0 -21 -10 -25
-25 -8 -33 -34 -54 -35 -29 -4 63 17 82 73 67 39 -10 41 -10 23 3 -12 9 -16
18 -10 22 6 4 11 19 12 35 2 37 -22 35 -42 -3 -9 -16 -20 -30 -25 -30 -14 0
-13 7 6 36 9 13 14 27 11 31 -10 9 -39 -6 -32 -17 3 -5 3 -15 -1 -22 -5 -8
-11 -2 -16 17 -4 17 -3 34 2 39 15 15 12 26 -7 25 -12 0 -13 -2 -5 -6 10 -4
10 -8 1 -19 -9 -11 -15 -11 -25 -3 -11 9 -14 7 -14 -9 0 -19 -18 -32 -46 -32
-8 0 -13 3 -12 8 0 4 -3 16 -7 26 -6 14 -3 23 10 32 22 16 45 18 45 4 0 -5 16
2 36 15 45 31 76 31 123 3 40 -24 43 -28 86 -104 22 -37 35 -50 44 -45 10 6 7
20 -13 59 -21 42 -26 65 -26 126 0 74 1 76 39 117 22 22 45 39 51 37 14 -4 61
-112 67 -153 3 -24 -7 -47 -53 -115 -65 -96 -94 -176 -94 -258 0 -56 26 -132
49 -146 6 -4 11 -12 11 -18 0 -5 -22 6 -50 26 -31 22 -56 33 -67 30 -13 -4
-14 -3 -5 3 10 7 8 14 -9 29 -49 44 -64 117 -30 148 14 13 21 14 27 5 5 -9 10
-8 20 5 8 11 14 13 19 7 9 -15 25 -14 25 2 0 8 -12 19 -27 26 -26 12 -26 14
-10 25 19 14 23 36 7 36 -5 0 -10 -4 -10 -10 0 -5 -8 -10 -18 -10 -23 0 -43
-22 -71 -77 -28 -57 -27 -76 10 -118 17 -19 27 -35 21 -35 -24 0 -167 182
-204 260 -9 19 -17 29 -17 23 -1 -15 -31 -18 -31 -3 0 12 -20 13 -39 1 -12 -8
-12 -13 3 -36 10 -15 23 -24 31 -21 16 6 29 -21 14 -30 -6 -3 -19 2 -30 12
-19 17 -20 17 -13 -2 7 -17 6 -17 -9 -5 -18 14 -52 7 -42 -9 3 -5 16 -10 28
-11 21 0 21 -1 2 -9 -18 -8 -18 -9 -2 -9 31 -2 8 -21 -33 -27 -38 -6 -79 -34
-50 -34 7 0 10 -7 6 -15 -3 -9 0 -15 9 -15 8 0 15 -7 15 -15 0 -10 10 -15 34
-15 33 0 96 -40 96 -61 0 -19 -51 -8 -72 16 -17 20 -28 24 -50 20 -24 -6 -28
-3 -28 15 0 14 -6 21 -18 19 -30 -3 -33 0 -22 21 9 17 8 20 -11 20 -14 0 -19
-5 -16 -14 4 -9 -3 -16 -16 -20 -16 -4 -19 -8 -10 -17 6 -6 9 -18 6 -26 -4 -9
2 -16 16 -20 27 -7 28 -23 1 -23 -23 0 -23 0 -10 -34 7 -20 16 -26 40 -26 16
0 30 -4 30 -10 0 -9 -15 -14 -33 -11 -5 1 -6 -3 -2 -9 4 -7 12 -7 25 0 30 16
37 11 12 -10 -17 -14 -22 -25 -17 -40 7 -23 25 -26 43 -8 7 7 12 8 12 4 0 -5
-8 -15 -18 -22 -21 -17 0 -19 29 -3 15 7 24 7 34 -1 11 -9 19 -8 35 3 18 12
19 16 5 27 -29 24 -11 70 27 70 23 0 23 -18 1 -42 -15 -17 -15 -20 -1 -34 15
-15 17 -14 23 7 4 13 20 42 36 63 16 22 27 41 25 43 -2 2 -39 0 -82 -5 -91
-10 -204 -4 -204 10 0 7 21 8 58 3 l57 -7 -27 22 c-16 12 -28 26 -28 32 0 5
18 -5 40 -22 40 -31 42 -32 112 -25 l72 7 -36 19 c-21 11 -41 25 -45 32 -13
22 -56 47 -80 47 -13 0 -23 5 -23 10 0 6 7 10 15 10 9 0 12 6 9 15 -5 11 1 15
24 15 17 0 34 -5 38 -11 4 -8 -1 -9 -17 -4 -22 7 -21 4 12 -36 49 -60 102 -89
164 -89 40 -1 46 -3 32 -11 -10 -6 -27 -9 -37 -6 -34 9 -90 -70 -104 -146 -9
-48 9 -107 32 -107 15 1 15 2 -1 11 -22 13 -22 26 2 34 18 5 18 8 3 37 -13 28
-13 36 -1 72 18 54 78 86 159 86 86 0 95 -14 30 -44 -67 -32 -84 -33 -75 -6 5
17 2 19 -23 16 -16 -2 -34 -6 -41 -10 -18 -11 -13 -26 9 -26 11 0 20 5 20 10
0 6 4 10 8 10 4 0 8 -12 7 -27 0 -40 25 -39 74 2 24 19 47 35 52 35 5 0 18 9
30 21 19 19 23 19 36 6 14 -13 12 -16 -18 -22 -21 -5 -52 -26 -81 -56 -39 -40
-48 -56 -48 -84 0 -24 -5 -35 -15 -35 -17 0 -21 45 -5 55 14 9 12 37 -2 33
-17 -6 -26 -48 -17 -80 9 -32 -5 -46 -26 -28 -12 10 -15 8 -15 -11 -1 -13 -7
-35 -15 -49 -24 -42 -17 -57 11 -22 17 22 34 32 52 32 20 0 23 3 13 9 -12 8
-12 12 -2 25 18 21 30 20 57 -5 l23 -22 -2 44 c-2 40 0 44 28 53 17 6 34 16
38 23 11 18 87 56 87 44 0 -13 -66 -95 -134 -165 -31 -33 -54 -61 -52 -63 2
-2 19 2 38 10 44 19 131 108 165 170 14 26 27 46 28 45 7 -9 -17 -254 -29
-303 -16 -65 -14 -74 8 -56 17 14 22 41 36 186 6 61 14 121 17 134 6 23 7 23
19 6 8 -11 14 -31 14 -47 0 -15 9 -37 21 -49 18 -18 28 -20 78 -14 90 11 95
10 111 -20 16 -31 6 -45 -68 -92 -29 -19 -58 -46 -65 -60 -10 -23 -8 -28 21
-54 67 -60 118 -50 244 49 84 66 162 111 174 99 3 -3 -2 -19 -11 -37 -9 -18
-15 -34 -12 -36 10 -11 37 11 52 42 19 40 45 45 45 9 0 -19 -9 -31 -32 -43
-37 -20 -68 -48 -68 -62 0 -19 40 -10 62 15 28 33 36 32 40 -7 2 -24 8 -32 26
-35 20 -3 22 0 16 19 -3 13 -12 29 -18 37 -9 12 -6 13 20 8 16 -3 34 -7 40 -9
5 -2 11 1 14 7 3 5 -15 17 -40 26 -36 13 -46 22 -48 43 -4 30 9 34 29 9 17
-20 79 -47 88 -38 3 4 -2 12 -11 18 -9 7 -25 18 -35 25 -36 25 69 3 132 -28
86 -42 133 -89 141 -140 5 -31 9 -38 16 -27 15 28 -19 91 -70 129 -72 54 -130
80 -195 86 -59 5 -59 5 -104 66 -25 34 -42 51 -39 39 9 -29 -28 -103 -52 -103
-27 0 -87 -35 -170 -102 -118 -94 -156 -104 -216 -57 -38 30 -31 58 26 95 91
59 105 85 72 129 -12 16 -30 21 -101 25 l-87 5 -12 49 c-7 28 -10 55 -6 60 8
14 3 47 -9 62 -6 8 -1 17 17 29 50 32 105 89 118 120 8 19 39 49 77 77 35 25
79 64 96 86 18 22 42 43 53 47 15 5 20 15 20 41 0 19 5 34 10 34 6 0 10 -11
10 -25 0 -14 4 -25 9 -25 16 0 61 66 61 89 0 12 15 36 33 52 22 21 26 28 12
23 -11 -4 -26 -14 -32 -22 -12 -14 -13 -14 -13 4 0 30 13 42 43 39 21 -3 27 1
27 16 0 22 -20 25 -39 7 -11 -11 -13 -7 -8 19 8 44 -12 49 -92 22 -36 -12 -72
-23 -79 -25 -7 -2 -10 -9 -6 -16 5 -8 2 -9 -10 -5 -10 4 -23 4 -29 0 -7 -4 -3
-9 9 -14 16 -6 15 -8 -8 -8 -31 -1 -39 -21 -8 -21 13 0 18 -5 14 -15 -5 -12
-10 -13 -20 -4 -9 8 -14 8 -14 1 0 -6 5 -14 10 -17 6 -3 10 -12 9 -18 0 -9 -2
-9 -6 1 -6 14 -43 16 -43 2 0 -5 6 -10 14 -10 8 0 16 -7 20 -15 3 -8 12 -15
21 -15 29 0 100 42 136 80 22 23 40 35 48 31 15 -9 -23 -61 -45 -61 -8 0 -14
-4 -14 -8 0 -10 -111 -56 -159 -67 -18 -4 -42 -14 -52 -23 -11 -10 -32 -15
-49 -14 -17 2 -30 -1 -30 -7 0 -6 6 -11 13 -11 7 0 18 -9 25 -20 10 -17 10
-20 -5 -20 -15 0 -16 -2 -3 -10 25 -16 62 -11 118 15 62 29 69 30 52 11 -6 -8
-33 -22 -58 -32 -26 -9 -54 -19 -62 -22 -8 -3 -19 -7 -25 -7 -43 -7 -104 -29
-99 -37 3 -5 11 -4 19 2 8 7 19 9 26 5 6 -4 15 -1 20 6 4 7 11 10 15 7 9 -9
-24 -41 -35 -34 -13 8 -71 -5 -71 -15 0 -5 5 -9 11 -9 7 0 18 -8 25 -17 7 -10
16 -14 21 -10 4 5 0 13 -10 18 -9 6 -15 15 -11 20 4 6 14 3 26 -7 16 -15 22
-16 40 -5 11 7 22 10 25 7 7 -6 -74 -57 -117 -72 -24 -9 -29 -14 -15 -14 13
-1 9 -5 -12 -11 -36 -11 -36 -39 0 -39 20 0 20 0 1 15 -10 8 -14 14 -9 14 6 0
18 -6 28 -13 19 -15 15 -20 -37 -46 -33 -17 -44 -39 -26 -50 7 -4 10 -12 6
-18 -3 -6 -2 -13 4 -17 14 -9 12 -22 -4 -28 -8 -3 -24 6 -37 21 l-24 27 30
-25 30 -25 -29 33 c-29 31 -43 42 -31 22 10 -17 -12 -11 -26 7 -11 13 -11 17
-1 20 6 3 10 9 6 14 -6 11 9 12 20 2 3 -4 14 -8 22 -9 9 -1 14 0 11 2 -3 3 1
27 8 53 7 29 9 54 4 62 -12 19 -11 86 1 94 6 4 7 -6 4 -24 -4 -17 -3 -38 1
-48 6 -15 9 -14 21 12 7 17 13 40 14 52 0 12 6 26 14 30 7 4 19 26 26 48 7 22
18 46 24 54 14 17 15 221 2 221 -11 0 25 29 37 30 4 0 3 -9 -3 -20 -6 -11 -10
-57 -8 -102 l3 -81 41 69 c23 38 55 84 72 102 17 18 44 59 60 91 16 31 34 55
40 53 7 -2 15 3 18 12 3 9 16 16 28 16 15 0 17 3 8 9 -20 12 54 97 82 94 15
-1 16 0 4 3 -23 7 -24 61 -2 135 22 71 29 50 10 -31 -9 -35 -14 -65 -13 -66 1
-1 13 -5 27 -9 22 -7 23 -6 12 7 -11 13 -4 26 43 80 35 42 55 74 55 90 0 14 7
31 15 38 13 11 14 10 9 -5 -4 -10 -1 -21 7 -26 20 -13 35 -11 21 3 -9 9 -8 16
5 30 15 17 18 17 34 2 15 -14 21 -14 34 -4 19 16 19 30 0 30 -23 0 -18 20 13
47 42 38 62 47 62 28 0 -8 -6 -15 -13 -15 -8 0 -26 -11 -42 -24 -27 -23 -27
-24 -6 -31 11 -3 21 -10 21 -15 0 -13 -72 -70 -97 -76 -21 -6 -27 -16 -24 -36
0 -5 -6 -8 -15 -8 -8 0 -13 -4 -10 -9 7 -10 -22 -24 -34 -16 -5 3 -12 0 -16
-6 -5 -9 2 -10 27 -5 31 6 32 5 14 -8 -11 -9 -27 -16 -35 -16 -13 0 -13 -1 0
-10 8 -5 19 -5 25 -1 5 4 23 13 39 20 25 10 28 10 17 -2 -6 -8 -26 -21 -44
-28 -18 -7 -42 -23 -54 -35 -14 -14 -30 -20 -43 -17 -26 7 -26 -8 0 -25 17
-10 18 -15 8 -26 -7 -7 -19 -11 -27 -8 -9 3 -12 1 -7 -6 4 -7 19 -12 34 -13
31 0 26 -3 -61 -34 -33 -12 -47 -22 -43 -31 7 -17 -6 -18 -22 -2 -6 6 -15 8
-19 5 -4 -4 3 -14 15 -23 31 -21 27 -34 -8 -34 -30 0 -41 -14 -17 -23 6 -3 2
-6 -11 -6 -14 -1 -21 -5 -16 -12 7 -12 14 -10 92 20 30 11 59 18 67 15 16 -6
29 12 15 21 -18 11 -11 27 10 22 17 -4 20 -2 14 15 -5 18 -3 20 20 14 15 -4
36 -1 47 5 16 8 23 8 28 0 9 -13 73 51 93 94 8 17 20 57 28 90 7 33 16 62 21
66 5 3 18 39 28 81 23 90 39 123 79 166 28 30 29 32 9 31 -12 0 -33 -4 -47 -9z
m-1230 -307 c12 -4 11 -7 -5 -13 -17 -8 -16 -9 8 -9 16 -1 26 -5 23 -10 -3 -5
1 -12 10 -15 8 -3 13 -9 10 -14 -2 -4 8 -16 23 -26 41 -28 68 -74 85 -141 18
-75 26 -156 15 -149 -5 3 -27 36 -50 74 -30 50 -44 89 -53 142 -13 79 -33 91
-28 18 3 -62 19 -106 51 -143 65 -77 122 -173 121 -206 -1 -12 -40 44 -40 57
0 7 -5 10 -12 6 -7 -4 -8 -3 -4 5 10 16 -46 101 -95 145 -21 20 -39 40 -39 46
0 11 -93 100 -124 117 -11 7 -32 13 -46 13 -23 1 -23 2 -5 10 12 5 14 9 6 9
-8 1 -12 4 -9 7 9 9 57 -20 123 -73 l60 -49 -3 59 c-3 41 -10 66 -23 80 -23
25 -24 20 -4 -26 19 -46 19 -67 0 -67 -8 0 -19 17 -26 43 -6 23 -15 50 -20 60
-7 12 -5 17 6 17 8 0 15 5 15 10 0 6 -18 10 -39 10 -44 0 -64 16 -29 23 24 4
72 -1 98 -10z m-300 -201 c0 -4 -6 -14 -12 -22 -7 -8 -3 -6 10 4 19 17 22 17
22 3 0 -9 -5 -19 -10 -22 -15 -9 -12 -22 4 -22 8 0 12 6 9 13 -2 7 5 18 18 24
20 11 21 10 14 -6 -17 -42 -16 -57 2 -24 10 19 27 37 38 39 17 3 15 -1 -9 -23
-15 -15 -26 -30 -23 -33 4 -3 21 11 40 31 43 45 79 47 162 7 60 -29 150 -110
144 -130 -5 -13 -133 68 -169 108 -32 34 -70 41 -90 15 -11 -12 -11 -15 1 -12
8 2 15 -7 17 -19 4 -26 -11 -30 -30 -9 -11 12 -19 11 -51 -6 -27 -13 -42 -16
-51 -9 -7 6 -22 8 -34 4 -17 -4 -22 -1 -23 13 0 11 -3 14 -6 7 -4 -12 -33 -19
-33 -8 0 2 9 19 19 37 11 17 18 35 15 40 -3 4 2 8 10 8 9 0 16 -4 16 -8z m330
-578 c30 -24 69 -55 85 -70 l30 -26 -63 6 c-73 7 -145 35 -184 73 -32 30 -34
45 -13 66 22 23 78 4 145 -49z"/>
<path d="M1350 1429 c0 -5 -4 -7 -10 -4 -5 3 -10 -1 -10 -9 0 -9 -7 -16 -16
-16 -14 0 -14 -3 -4 -15 7 -8 9 -15 4 -15 -5 0 2 -6 16 -13 41 -21 38 -60 -7
-102 -44 -41 -35 -44 34 -12 99 45 173 90 179 109 3 11 12 17 20 14 8 -3 14 1
14 9 0 20 -13 19 -43 -5 -27 -22 -48 -27 -29 -8 7 7 12 18 12 25 0 10 -7 9
-26 -4 l-27 -17 14 24 c8 14 19 28 24 32 6 5 4 8 -4 8 -8 0 -26 -10 -39 -22
l-24 -23 7 25 c6 20 5 23 -6 13 -19 -18 -29 -16 -23 5 4 11 -1 9 -16 -8 -21
-25 -22 -25 -17 -2 3 14 0 22 -9 22 -8 0 -14 -5 -14 -11z"/>
<path d="M1285 1190 c3 -5 14 -10 23 -10 44 -1 39 -17 -15 -59 -48 -37 -81
-52 -192 -87 -11 -3 -11 -8 -3 -16 8 -8 17 -7 36 5 19 13 35 15 78 7 29 -4 60
-11 69 -15 12 -4 18 1 22 17 4 13 13 32 21 43 9 11 24 31 35 45 l19 25 13 -29
c11 -24 11 -32 -4 -58 -21 -36 -22 -49 -3 -42 8 3 16 -2 18 -12 3 -17 4 -17
21 0 9 10 17 27 17 38 0 18 -2 19 -17 7 -15 -13 -15 -12 -6 6 6 11 9 36 6 55
l-4 35 16 -27 c8 -15 19 -51 23 -80 l8 -53 13 38 c13 38 13 38 33 20 21 -18
21 -18 16 9 -3 15 0 29 6 32 6 2 1 5 -11 5 -24 1 -32 26 -10 34 6 3 0 6 -15 6
-16 1 -28 6 -28 11 0 6 -8 10 -18 10 -10 0 -42 11 -70 25 -52 25 -109 34 -97
15z"/>
<path d="M1661 1028 c-28 -35 -59 -74 -69 -87 -16 -21 -27 -24 -105 -26 -48
-1 -87 2 -87 6 0 5 -8 9 -17 9 -10 0 0 9 22 19 48 23 42 27 -9 6 -29 -12 -40
-13 -55 -3 -26 16 -39 3 -23 -22 17 -28 15 -33 -13 -26 -27 7 -198 -17 -250
-35 -16 -6 -52 -17 -80 -26 -27 -8 -60 -24 -74 -34 -29 -23 -23 -24 29 -3 22
9 51 13 65 10 27 -7 69 -71 80 -123 4 -18 11 -35 16 -38 13 -9 30 42 23 69 -7
29 -47 72 -74 81 -11 3 -20 11 -20 16 0 11 47 1 76 -16 19 -12 44 -73 44 -109
0 -9 5 -16 10 -16 10 0 6 32 -11 78 -12 32 -11 35 7 28 8 -3 12 -2 9 4 -3 5
17 21 44 34 27 14 53 30 56 36 9 15 -42 2 -86 -22 -31 -17 -41 -18 -79 -8 -35
9 -41 14 -28 21 32 18 168 40 225 37 50 -3 59 -6 70 -28 9 -18 9 -26 1 -31 -8
-5 -6 -16 7 -35 11 -17 20 -24 23 -16 2 7 8 10 13 6 15 -9 10 20 -7 44 -13 19
-13 22 0 22 25 0 28 18 4 30 -22 11 -22 10 -4 -4 14 -12 16 -16 5 -16 -21 1
-56 32 -62 57 -5 21 -4 21 27 4 23 -13 66 -20 163 -25 72 -4 144 -11 160 -15
28 -8 28 -9 28 -83 0 -42 4 -80 8 -85 5 -4 17 3 28 16 25 31 25 91 -1 119 -29
30 -12 34 63 13 65 -18 117 -44 117 -59 0 -4 -22 -24 -50 -45 -73 -54 -85
-120 -15 -83 39 21 75 75 75 112 0 17 6 24 19 24 32 0 45 -28 43 -88 -3 -69 4
-92 29 -92 15 0 19 7 19 34 0 18 -7 50 -15 70 -19 44 -6 48 49 15 41 -24 44
-41 16 -84 -18 -28 -27 -75 -14 -75 23 0 46 27 56 67 11 45 12 46 26 25 18
-27 35 -29 27 -2 -5 14 -2 20 9 20 9 0 16 5 16 10 0 6 -10 10 -22 10 -13 0
-30 5 -38 10 -12 8 -11 10 7 10 27 0 69 37 78 68 10 34 -11 27 -56 -18 -22
-22 -46 -40 -55 -40 -21 0 -80 26 -88 39 -7 11 67 35 87 28 7 -2 -8 -9 -33
-15 -26 -6 -35 -10 -22 -11 28 -1 92 27 92 40 0 14 -44 11 -110 -7 -50 -14
-63 -15 -91 -4 l-31 13 25 19 c16 12 28 32 32 56 6 39 -7 92 -24 92 -15 0 -34
-69 -28 -106 7 -44 -8 -48 -103 -26 l-75 18 53 18 c29 10 66 29 83 44 30 24
30 26 11 33 -29 11 -68 -3 -132 -46 -51 -34 -58 -36 -110 -31 -30 3 -60 6 -67
7 -17 3 -2 27 48 74 42 38 33 22 -21 -39 l-25 -29 25 13 c35 18 69 50 86 82
16 31 19 78 4 78 -5 0 -32 -28 -59 -62z"/>
<path d="M1183 765 c13 -9 19 -29 22 -68 1 -31 11 -69 21 -86 10 -17 16 -32
13 -33 -2 -2 -17 -10 -33 -18 -41 -21 -47 -43 -9 -34 39 9 74 28 102 55 30 29
47 32 88 17 24 -9 38 -9 55 -1 13 6 36 14 51 18 22 4 27 3 21 -7 -6 -10 -4
-10 9 1 40 32 1 37 -128 16 -35 -6 -46 -3 -75 21 -19 15 -29 21 -22 14 19 -22
14 -57 -10 -74 -31 -22 -35 -20 -30 12 2 15 -5 50 -16 78 -29 71 -17 82 44 39
51 -37 109 -50 83 -19 -19 23 -77 50 -144 68 -48 12 -56 12 -42 1z"/>
</g>
</svg>
