<?xml version="1.0" standalone="no"?>
<!DOCTYPE svg PUBLIC "-//W3C//DTD SVG 20010904//EN"
 "http://www.w3.org/TR/2001/REC-SVG-20010904/DTD/svg10.dtd">
<svg version="1.0" xmlns="http://www.w3.org/2000/svg"
 width="239.000000pt" height="211.000000pt" viewBox="0 0 239.000000 211.000000"
 preserveAspectRatio="xMidYMid meet">
<metadata>
Created by potrace 1.16, written by Peter Selinger 2001-2019
</metadata>
<g transform="translate(0.000000,211.000000) scale(0.100000,-0.100000)"
fill="#000000" stroke="none">
<path d="M1590 1967 c-135 -49 -210 -117 -275 -252 -61 -124 -85 -219 -92
-350 l-6 -110 -64 -1 c-49 -1 -77 -8 -126 -32 -54 -27 -75 -47 -163 -155 -91
-110 -110 -128 -175 -163 l-74 -39 -163 3 c-159 3 -165 3 -217 -23 -72 -35
-151 -107 -165 -151 -8 -22 -11 -73 -8 -128 3 -80 8 -101 41 -170 96 -202 289
-305 552 -293 140 7 250 38 410 117 205 101 299 207 399 453 l16 39 62 -57
c104 -93 252 -155 372 -155 59 0 171 26 223 51 58 28 149 112 174 160 22 43
24 94 8 171 -19 88 -46 128 -159 238 -93 90 -111 113 -130 165 -26 70 -29 172
-10 303 20 134 -1 219 -76 301 -62 70 -114 94 -208 98 -66 3 -93 -1 -146 -20z
m208 -83 c64 -26 112 -83 133 -156 4 -17 1 -84 -8 -166 -18 -153 -12 -222 27
-327 19 -52 38 -76 139 -175 127 -125 144 -155 145 -263 1 -47 -2 -51 -51 -97
-80 -74 -130 -94 -245 -98 -74 -3 -111 0 -150 13 -68 22 -177 94 -225 149 -35
39 -39 52 -50 130 -15 113 -63 213 -136 288 -51 52 -55 58 -61 119 -8 76 5
168 37 264 64 187 138 272 275 316 71 22 122 23 170 3z m-535 -746 c64 -32
125 -139 142 -248 14 -93 -54 -281 -147 -405 -106 -143 -332 -258 -563 -287
-177 -22 -328 22 -430 126 -74 76 -106 148 -113 253 l-5 83 43 42 c75 71 105
79 287 76 l158 -3 68 32 c95 45 133 78 237 204 50 60 105 116 123 126 67 35
131 35 200 1z"/>
<path d="M1768 1503 c-25 -28 -48 -121 -48 -192 0 -110 54 -200 164 -276 60
-41 99 -43 111 -5 9 28 -2 42 -71 93 -45 33 -68 59 -88 98 -30 60 -32 101 -11
182 20 76 19 94 -4 107 -27 14 -35 13 -53 -7z"/>
<path d="M942 798 c-51 -68 -67 -83 -127 -109 -43 -19 -61 -21 -151 -16 -91 4
-105 3 -119 -13 -21 -23 -12 -58 18 -69 74 -28 229 -20 303 15 90 43 202 182
178 221 -6 10 -23 19 -37 21 -21 3 -33 -7 -65 -50z"/>
</g>
</svg>
